M48
;Layer_Color=9474304
;FILE_FORMAT=4:4
METRIC,LZ
;TYPE=PLATED
T1F00S00C0.7620
T2F00S00C0.8000
T3F00S00C0.8128
T4F00S00C0.9000
T5F00S00C1.1000
T6F00S00C1.2700
%
T01
X00410001Y001
Y0014
X0041Y0027
X0045
X0027Y0025
Y0029
Y0015
Y001
X0067Y0046
X0072
X0084Y0048
Y0044
T02
X005338Y001392
Y001646
Y0019
Y002154
Y002408
Y002662
Y002916
X0061
Y002662
Y002408
Y002154
Y0019
Y001646
Y001392
T03
X002084Y-0
X0031
X007Y000984
Y002
X0078Y002484
Y0035
X0056Y004
X0044Y003984
Y005
X0056Y005016
T04
X0013Y000046
Y0003
X005146Y-0001
X0054
X0012Y002246
Y0025
T05
X0079Y-000154
Y000354
X0012Y004292
Y0048
X0022Y004854
Y004346
X0033
Y004854
X0095Y004854
Y004346
T06
X0092Y000946
Y0012
M30
