G04 Layer_Color=8388736*
%FSLAX44Y44*%
%MOMM*%
G71*
G01*
G75*
%ADD22C,1.7780*%
%ADD32C,2.2032*%
%ADD33P,2.3847X8X22.5*%
%ADD34C,1.8032*%
%ADD35C,1.8032*%
%ADD36R,1.8032X1.8032*%
%ADD37P,2.3847X8X112.5*%
%ADD38C,1.7032*%
%ADD39R,1.7032X1.7032*%
%ADD40C,2.0532*%
%ADD41R,2.0532X2.0532*%
%ADD42R,1.7032X1.7032*%
%ADD43C,1.9812*%
D22*
X560000Y400000D02*
D03*
Y501600D02*
D03*
X310000Y-0D02*
D03*
X208400D02*
D03*
X700000Y98400D02*
D03*
Y200000D02*
D03*
X440000Y398400D02*
D03*
Y500000D02*
D03*
X780000Y350000D02*
D03*
Y248400D02*
D03*
D32*
X720000Y460000D02*
D03*
X270000Y290000D02*
D03*
Y150000D02*
D03*
X410000Y270000D02*
D03*
X840000Y480000D02*
D03*
X410001Y140000D02*
D03*
D33*
X670000Y460000D02*
D03*
X450000Y270000D02*
D03*
D34*
X610000Y139200D02*
D03*
Y164600D02*
D03*
Y190000D02*
D03*
Y215400D02*
D03*
Y240800D02*
D03*
Y266200D02*
D03*
Y291600D02*
D03*
D35*
X533800Y139200D02*
D03*
Y164600D02*
D03*
Y190000D02*
D03*
Y215400D02*
D03*
Y240800D02*
D03*
Y266200D02*
D03*
D36*
Y291600D02*
D03*
D37*
X270000Y250000D02*
D03*
Y100000D02*
D03*
X840000Y440000D02*
D03*
X410001Y100000D02*
D03*
D38*
X514600Y-10000D02*
D03*
X130000Y30000D02*
D03*
X120000Y250000D02*
D03*
D39*
X540000Y-10000D02*
D03*
D40*
X790000Y35400D02*
D03*
X120000Y480000D02*
D03*
X220000Y485400D02*
D03*
X330000D02*
D03*
X950000Y485400D02*
D03*
D41*
X790000Y-15400D02*
D03*
X120000Y429200D02*
D03*
X220000Y434600D02*
D03*
X330000D02*
D03*
X950000Y434600D02*
D03*
D42*
X130000Y4600D02*
D03*
X120000Y224600D02*
D03*
D43*
X920000Y94600D02*
D03*
Y120000D02*
D03*
M02*
