G04 Layer_Color=65535*
%FSLAX44Y44*%
%MOMM*%
G71*
G01*
G75*
%ADD23C,0.2540*%
%ADD25C,0.1000*%
%ADD26C,0.2000*%
%ADD27C,0.2500*%
%ADD28C,0.1270*%
%ADD29C,0.3048*%
%ADD30C,0.1200*%
%ADD31C,0.1500*%
D23*
X527323Y328044D02*
X532401D01*
X529862D01*
Y312809D01*
X527323D01*
X532401D01*
X550175Y325505D02*
X547636Y328044D01*
X542558D01*
X540019Y325505D01*
Y322966D01*
X542558Y320427D01*
X547636D01*
X550175Y317888D01*
Y315348D01*
X547636Y312809D01*
X542558D01*
X540019Y315348D01*
X555254Y328044D02*
Y312809D01*
X562871D01*
X565410Y315348D01*
Y325505D01*
X562871Y328044D01*
X555254D01*
X570489Y312809D02*
X575567D01*
X573028D01*
Y328044D01*
X570489Y325505D01*
X108951Y283905D02*
X111490Y286444D01*
X116568D01*
X119108Y283905D01*
Y281366D01*
X116568Y278827D01*
X114029D01*
X116568D01*
X119108Y276287D01*
Y273748D01*
X116568Y271209D01*
X111490D01*
X108951Y273748D01*
X124186Y286444D02*
Y276287D01*
X129264Y271209D01*
X134343Y276287D01*
Y286444D01*
X139421Y278827D02*
X149578D01*
X164813Y286444D02*
X154656D01*
Y278827D01*
X159734Y281366D01*
X162274D01*
X164813Y278827D01*
Y273748D01*
X162274Y271209D01*
X157195D01*
X154656Y273748D01*
X169891Y286444D02*
Y276287D01*
X174970Y271209D01*
X180048Y276287D01*
Y286444D01*
X262250Y330895D02*
X259711Y333434D01*
X254633D01*
X252094Y330895D01*
Y320738D01*
X254633Y318199D01*
X259711D01*
X262250Y320738D01*
X267329Y318199D02*
X272407D01*
X269868D01*
Y333434D01*
X267329Y330895D01*
X832250Y520895D02*
X829710Y523434D01*
X824632D01*
X822093Y520895D01*
Y510738D01*
X824632Y508199D01*
X829710D01*
X832250Y510738D01*
X847485Y508199D02*
X837328D01*
X847485Y518356D01*
Y520895D01*
X844945Y523434D01*
X839867D01*
X837328Y520895D01*
X402128Y310876D02*
X399589Y313415D01*
X394511D01*
X391972Y310876D01*
Y300720D01*
X394511Y298180D01*
X399589D01*
X402128Y300720D01*
X407207Y310876D02*
X409746Y313415D01*
X414824D01*
X417363Y310876D01*
Y308337D01*
X414824Y305798D01*
X412285D01*
X414824D01*
X417363Y303259D01*
Y300720D01*
X414824Y298180D01*
X409746D01*
X407207Y300720D01*
X402147Y180706D02*
X399608Y183245D01*
X394530D01*
X391991Y180706D01*
Y170549D01*
X394530Y168010D01*
X399608D01*
X402147Y170549D01*
X414843Y168010D02*
Y183245D01*
X407226Y175627D01*
X417382D01*
X243529Y186180D02*
X240990Y188719D01*
X235911D01*
X233372Y186180D01*
Y176023D01*
X235911Y173484D01*
X240990D01*
X243529Y176023D01*
X258764Y188719D02*
X248607D01*
Y181102D01*
X253685Y183641D01*
X256225D01*
X258764Y181102D01*
Y176023D01*
X256225Y173484D01*
X251146D01*
X248607Y176023D01*
X740157Y512696D02*
X737617Y515235D01*
X732539D01*
X730000Y512696D01*
Y502539D01*
X732539Y500000D01*
X737617D01*
X740157Y502539D01*
X755392Y515235D02*
X750313Y512696D01*
X745235Y507617D01*
Y502539D01*
X747774Y500000D01*
X752852D01*
X755392Y502539D01*
Y505078D01*
X752852Y507617D01*
X745235D01*
X883894Y161269D02*
Y146034D01*
X891511D01*
X894050Y148573D01*
Y158730D01*
X891511Y161269D01*
X883894D01*
X899129Y146034D02*
X904207D01*
X901668D01*
Y161269D01*
X899129Y158730D01*
X430983Y516382D02*
Y531617D01*
X438600D01*
X441140Y529078D01*
Y524000D01*
X438600Y521461D01*
X430983D01*
X436061D02*
X441140Y516382D01*
X446218D02*
X451296D01*
X448757D01*
Y531617D01*
X446218Y529078D01*
X560000Y520000D02*
Y535235D01*
X567617D01*
X570157Y532696D01*
Y527617D01*
X567617Y525078D01*
X560000D01*
X565078D02*
X570157Y520000D01*
X585392D02*
X575235D01*
X585392Y530157D01*
Y532696D01*
X582852Y535235D01*
X577774D01*
X575235Y532696D01*
X201942Y19420D02*
Y34655D01*
X209560D01*
X212099Y32116D01*
Y27037D01*
X209560Y24498D01*
X201942D01*
X207021D02*
X212099Y19420D01*
X217178Y32116D02*
X219717Y34655D01*
X224795D01*
X227334Y32116D01*
Y29577D01*
X224795Y27037D01*
X222256D01*
X224795D01*
X227334Y24498D01*
Y21959D01*
X224795Y19420D01*
X219717D01*
X217178Y21959D01*
X690983Y216382D02*
Y231618D01*
X698601D01*
X701140Y229078D01*
Y224000D01*
X698601Y221461D01*
X690983D01*
X696062D02*
X701140Y216382D01*
X713836D02*
Y231618D01*
X706218Y224000D01*
X716375D01*
X770836Y366524D02*
Y381759D01*
X778453D01*
X780992Y379220D01*
Y374142D01*
X778453Y371603D01*
X770836D01*
X775914D02*
X780992Y366524D01*
X796227Y381759D02*
X786071D01*
Y374142D01*
X791149Y376681D01*
X793688D01*
X796227Y374142D01*
Y369063D01*
X793688Y366524D01*
X788610D01*
X786071Y369063D01*
X329108Y524131D02*
X326568Y526670D01*
X321490D01*
X318951Y524131D01*
Y521592D01*
X321490Y519053D01*
X326568D01*
X329108Y516513D01*
Y513974D01*
X326568Y511435D01*
X321490D01*
X318951Y513974D01*
X334186Y511435D02*
X339264D01*
X336725D01*
Y526670D01*
X334186Y524131D01*
X219108D02*
X216569Y526670D01*
X211490D01*
X208951Y524131D01*
Y521592D01*
X211490Y519053D01*
X216569D01*
X219108Y516513D01*
Y513974D01*
X216569Y511435D01*
X211490D01*
X208951Y513974D01*
X234343Y511435D02*
X224186D01*
X234343Y521592D01*
Y524131D01*
X231804Y526670D01*
X226725D01*
X224186Y524131D01*
X119108Y518731D02*
X116569Y521270D01*
X111490D01*
X108951Y518731D01*
Y516191D01*
X111490Y513652D01*
X116569D01*
X119108Y511113D01*
Y508574D01*
X116569Y506035D01*
X111490D01*
X108951Y508574D01*
X124186Y518731D02*
X126725Y521270D01*
X131804D01*
X134343Y518731D01*
Y516191D01*
X131804Y513652D01*
X129264D01*
X131804D01*
X134343Y511113D01*
Y508574D01*
X131804Y506035D01*
X126725D01*
X124186Y508574D01*
X789108Y74131D02*
X786569Y76670D01*
X781490D01*
X778951Y74131D01*
Y71592D01*
X781490Y69053D01*
X786569D01*
X789108Y66513D01*
Y63974D01*
X786569Y61435D01*
X781490D01*
X778951Y63974D01*
X801804Y61435D02*
Y76670D01*
X794186Y69053D01*
X804343D01*
X949108Y524131D02*
X946569Y526670D01*
X941490D01*
X938951Y524131D01*
Y521592D01*
X941490Y519053D01*
X946569D01*
X949108Y516513D01*
Y513974D01*
X946569Y511435D01*
X941490D01*
X938951Y513974D01*
X964343Y526670D02*
X954186D01*
Y519053D01*
X959264Y521592D01*
X961804D01*
X964343Y519053D01*
Y513974D01*
X961804Y511435D01*
X956725D01*
X954186Y513974D01*
X512261Y30272D02*
X509722Y32811D01*
X504643D01*
X502104Y30272D01*
Y27733D01*
X504643Y25194D01*
X509722D01*
X512261Y22655D01*
Y20115D01*
X509722Y17576D01*
X504643D01*
X502104Y20115D01*
X517339Y12498D02*
Y27733D01*
X524957D01*
X527496Y25194D01*
Y20115D01*
X524957Y17576D01*
X517339D01*
X540192D02*
X535114D01*
X532574Y20115D01*
Y25194D01*
X535114Y27733D01*
X540192D01*
X542731Y25194D01*
Y22655D01*
X532574D01*
X550349Y27733D02*
X555427D01*
X557966Y25194D01*
Y17576D01*
X550349D01*
X547809Y20115D01*
X550349Y22655D01*
X557966D01*
X563045Y17576D02*
Y32811D01*
Y22655D02*
X570662Y27733D01*
X563045Y22655D02*
X570662Y17576D01*
X585897D02*
X580819D01*
X578280Y20115D01*
Y25194D01*
X580819Y27733D01*
X585897D01*
X588436Y25194D01*
Y22655D01*
X578280D01*
X593515Y27733D02*
Y17576D01*
Y22655D01*
X596054Y25194D01*
X598593Y27733D01*
X601132D01*
X109592Y52603D02*
Y67838D01*
X114670Y62760D01*
X119748Y67838D01*
Y52603D01*
X124827Y67838D02*
X129905D01*
X127366D01*
Y52603D01*
X124827D01*
X129905D01*
X147679Y65299D02*
X145140Y67838D01*
X140062D01*
X137523Y65299D01*
Y55142D01*
X140062Y52603D01*
X145140D01*
X147679Y55142D01*
D25*
X735400Y458730D02*
G03*
X735400Y458730I-40000J0D01*
G01*
X311270Y125401D02*
G03*
X311270Y125401I-40000J0D01*
G01*
X250000Y230000D02*
Y310000D01*
X290000D01*
Y230000D02*
Y310000D01*
X250000Y230000D02*
X290000D01*
X390000Y250000D02*
X470000D01*
X390000D02*
Y290000D01*
X470000D01*
Y250000D02*
Y290000D01*
X820000Y420000D02*
Y500000D01*
X860000D01*
Y420000D02*
Y500000D01*
X820000Y420000D02*
X860000D01*
X390001Y80000D02*
Y160000D01*
X430001D01*
Y80000D02*
Y160000D01*
X390001Y80000D02*
X430001D01*
D26*
X564850Y304300D02*
G03*
X577550Y304300I6350J0D01*
G01*
X547700Y126400D02*
Y304200D01*
X547550Y126500D02*
X594850D01*
Y304300D01*
X577550D02*
X594850D01*
X547550D02*
X564850D01*
X554000Y-24000D02*
Y4000D01*
X500600Y-24000D02*
Y4000D01*
Y-24000D02*
X554000D01*
X500600Y4000D02*
X554000D01*
X777300Y-32800D02*
X802700D01*
Y52800D01*
X777300D02*
X802700D01*
X777300Y-32800D02*
Y52800D01*
X107300Y411800D02*
X132700D01*
Y497400D01*
X107300D02*
X132700D01*
X107300Y411800D02*
Y497400D01*
X207300Y417200D02*
X232700D01*
Y502800D01*
X207300D02*
X232700D01*
X207300Y417200D02*
Y502800D01*
X317300Y417200D02*
X342700D01*
Y502800D01*
X317300D02*
X342700D01*
X317300Y417200D02*
Y502800D01*
X116000Y-9400D02*
X144000D01*
X116000Y44000D02*
X144000D01*
X116000Y-9400D02*
Y44000D01*
X144000Y-9400D02*
Y44000D01*
X937300Y417200D02*
X962700D01*
Y502800D01*
X937300D02*
X962700D01*
X937300Y417200D02*
Y502800D01*
X107300Y262700D02*
X132700D01*
Y211900D02*
Y262700D01*
X107300Y211900D02*
X132700D01*
X107300D02*
Y262700D01*
D27*
X541250Y-30500D02*
G03*
X541250Y-30500I-1250J0D01*
G01*
X791260Y-37610D02*
G03*
X791260Y-37610I-1250J0D01*
G01*
X121260Y406990D02*
G03*
X121260Y406990I-1250J0D01*
G01*
X221260Y412390D02*
G03*
X221260Y412390I-1250J0D01*
G01*
X331260D02*
G03*
X331260Y412390I-1250J0D01*
G01*
X110750Y4599D02*
G03*
X110750Y4599I-1250J0D01*
G01*
X951260Y412390D02*
G03*
X951260Y412390I-1250J0D01*
G01*
D28*
X997470Y83168D02*
G03*
X997470Y131428I0J24130D01*
G01*
X881900Y126350D02*
Y137780D01*
Y126350D02*
X907300D01*
Y88250D02*
Y126350D01*
X881900Y88250D02*
X907300D01*
X881900Y76820D02*
Y88250D01*
X972070Y131430D02*
X997470D01*
X972070Y83170D02*
X997470D01*
X881900Y137780D02*
X972070D01*
Y76820D02*
Y137780D01*
X881900Y76820D02*
X972070D01*
D29*
X549840Y420320D02*
X570160D01*
X549840D02*
Y481280D01*
X570160D01*
Y420320D02*
Y481280D01*
X560000Y410160D02*
Y420320D01*
Y481280D02*
Y491440D01*
X289680Y-10160D02*
Y10160D01*
X228720Y-10160D02*
X289680D01*
X228720D02*
Y10160D01*
X289680D01*
Y-0D02*
X299840D01*
X218560D02*
X228720D01*
X689840Y118720D02*
X710160D01*
X689840D02*
Y179680D01*
X710160D01*
Y118720D02*
Y179680D01*
X700000Y108560D02*
Y118720D01*
Y179680D02*
Y189840D01*
X429840Y418720D02*
X450160D01*
X429840D02*
Y479680D01*
X450160D01*
Y418720D02*
Y479680D01*
X440000Y408560D02*
Y418720D01*
Y479680D02*
Y489840D01*
X769840Y329680D02*
X790160D01*
Y268720D02*
Y329680D01*
X769840Y268720D02*
X790160D01*
X769840D02*
Y329680D01*
X780000D02*
Y339840D01*
Y258560D02*
Y268720D01*
D30*
X666000Y479998D02*
X673997D01*
X669999Y483997D02*
Y475999D01*
X250002Y96001D02*
Y103998D01*
X246003Y99999D02*
X254001D01*
D31*
X120022Y200600D02*
Y208264D01*
X116190Y204432D02*
X123854D01*
M02*
